<svg width="188" height="50" viewBox="0 0 188 50" fill="none" xmlns="http://www.w3.org/2000/svg">
<mask id="mask0_179_1699" style="mask-type:luminance" maskUnits="userSpaceOnUse" x="0" y="0" width="188" height="50">
<path d="M188 0H0V50H188V0Z" fill="white"/>
</mask>
<g mask="url(#mask0_179_1699)">
<g opacity="0.871906">
<path d="M25.4923 10.998H20.3784C20.3618 10.998 20.3452 11.0146 20.3452 11.0312V32.7073C20.3452 32.7239 20.3618 32.7404 20.3784 32.7404H25.4923C25.5089 32.7404 25.5255 32.7239 25.5255 32.7073V11.0312C25.5255 11.0146 25.5089 10.998 25.4923 10.998Z" fill="#F9D923"/>
<path d="M36.8989 32.7404H32.1171C32.1005 32.7404 32.0839 32.7239 32.0839 32.7073V11.0312C32.0839 11.0146 32.1005 10.998 32.1171 10.998H37.2475L37.2807 11.0146L48.9862 24.8251C49.0028 24.8416 49.0194 24.8582 49.036 24.8416C49.036 24.8416 49.0526 24.8251 49.0526 24.8085V11.0312C49.0526 11.0146 49.0692 10.998 49.0858 10.998H53.8676C53.8842 10.998 53.9008 11.0146 53.9008 11.0312V32.7073C53.9008 32.7239 53.8842 32.7404 53.8676 32.7404H48.7372C48.7205 32.7404 48.7205 32.7239 48.7205 32.7239L36.9985 18.8968C36.9819 18.8803 36.9653 18.8803 36.9487 18.8968C36.9487 18.8968 36.9321 18.8968 36.9321 18.9134V32.7073C36.9321 32.7239 36.9155 32.7404 36.8989 32.7404Z" fill="#F9D923"/>
<path d="M77.9925 28.6337V32.6908C77.9925 32.7239 77.9759 32.7404 77.9427 32.7404H60.4758C60.4426 32.7404 60.4426 32.7239 60.4426 32.6908V11.0312C60.4426 11.0146 60.4426 10.998 60.4758 10.998H65.5897C65.6229 10.998 65.6395 11.0146 65.6395 11.0312V28.5509C65.6395 28.584 65.6561 28.584 65.6893 28.584H77.9427C77.9759 28.584 77.9925 28.6006 77.9925 28.6337Z" fill="#F9D923"/>
<path d="M91.0261 23.5335C91.0261 23.55 91.0261 23.5997 91.0427 23.5997H91.0759L97.6841 23.6328C97.7007 23.6328 97.7339 23.6162 97.7339 23.5997L97.7173 23.5831L94.4631 16.7938C94.4465 16.7772 94.4299 16.7772 94.3966 16.7772L94.38 16.7938L91.0261 23.5335ZM99.7596 27.7892L88.9009 27.7726C88.8843 27.7726 88.8511 27.7726 88.8511 27.7892L86.3938 32.7239C86.3938 32.7404 86.3772 32.7404 86.3606 32.7404H81.4293C81.4127 32.7404 81.3961 32.7239 81.3961 32.7073V32.6908L92.5204 11.0146C92.5204 10.998 92.5371 10.998 92.5537 10.998H97.4019C97.4185 10.998 97.4351 10.998 97.4351 11.0146L108.078 32.6908C108.078 32.7073 108.078 32.7404 108.061 32.7404H108.045H102.184C102.167 32.7404 102.15 32.7404 102.15 32.7239L99.7928 27.8058C99.7928 27.7892 99.7762 27.7892 99.7596 27.7892Z" fill="#F9D923"/>
<path d="M161.325 32.6907C161.325 32.7238 161.309 32.7404 161.276 32.7404H142.846C142.812 32.7404 142.812 32.7238 142.812 32.6907L142.796 11.0311C142.796 11.0145 142.812 10.998 142.846 10.998H160.628C160.661 10.998 160.661 11.0145 160.661 11.0311V15.1047C160.661 15.1213 160.661 15.1544 160.628 15.1544L148.059 15.1709C148.026 15.1709 148.009 15.2041 148.009 15.2206V19.2776C148.009 19.3108 148.026 19.3108 148.059 19.3108L159.698 19.3273C159.731 19.3273 159.748 19.3273 159.748 19.3604V23.434C159.748 23.4672 159.731 23.4672 159.698 23.4672H148.059C148.026 23.4672 148.009 23.4837 148.009 23.5168V28.5509C148.009 28.584 148.026 28.584 148.059 28.584H161.276C161.309 28.584 161.325 28.6005 161.325 28.6337V32.7073V32.6907ZM137.516 32.7404H118.256C118.223 32.7404 118.206 32.7238 118.206 32.6907V28.3853C118.206 28.2694 118.256 28.2362 118.322 28.1534C122.34 23.848 126.375 19.5426 130.393 15.2206C130.426 15.1875 130.393 15.1875 130.36 15.1875C127.853 15.1378 125.977 15.1213 124.748 15.1544C123.652 15.1875 122.49 15.1544 121.577 15.1709C120.58 15.1875 119.601 15.1875 118.605 15.1709C118.555 15.1709 118.522 15.1378 118.522 15.0881V11.0808C118.522 11.0145 118.555 10.998 118.621 10.998H137.234C137.267 10.998 137.283 11.0145 137.283 11.0477C137.25 12.3227 137.25 13.5978 137.267 14.8729C137.267 15.2372 137.35 15.3862 137.068 15.6843C133.066 19.9566 129.081 24.2454 125.08 28.5343C125.047 28.5674 125.047 28.584 125.113 28.584H137.516C137.566 28.584 137.582 28.6171 137.582 28.6668L137.599 32.6741C137.599 32.7238 137.566 32.7404 137.516 32.7404ZM163.749 4.75513H115.599C113.374 4.75513 111.581 6.4773 111.581 8.58033V35.0918C111.581 37.1948 113.374 38.917 115.599 38.917H163.749C165.974 38.917 167.784 37.1948 167.784 35.0918V8.58033C167.784 6.4773 165.974 4.75513 163.749 4.75513Z" fill="#F9D923"/>
<path d="M20.7105 40.7717H24.0644L22.3874 36.7975L20.7105 40.7717ZM23.533 35.3071L27.3186 44.2988H25.5587L24.6953 42.2786H20.0795L19.2327 44.2988H17.4562L21.2584 35.3071H23.533Z" fill="white"/>
<path d="M37.098 36.9465H31.2204V39.3145H36.0686V40.8711H31.2204V44.2988H29.4604V35.3071H37.098V36.9465Z" fill="white"/>
<path d="M47.4254 36.9465H41.5478V39.3145H46.4126V40.8711H41.5478V44.2988H39.8044V35.3071H47.4254V36.9465Z" fill="white"/>
<path d="M52.008 44.2988H50.2646V35.3071H52.008V44.2988Z" fill="white"/>
<path d="M57.0721 42.7423H61.9701V44.2988H55.3121V35.3071H57.0721V42.7423Z" fill="white"/>
<path d="M66.2039 44.2988H64.4606V35.3071H66.2039V44.2988Z" fill="white"/>
<path d="M71.7163 40.7717H75.0702L73.3933 36.7975L71.7163 40.7717ZM74.5389 35.3071L78.3245 44.2988H76.5479L75.7012 42.2786H71.0854L70.2386 44.2988H68.4454L72.2476 35.3071H74.5389Z" fill="white"/>
<path d="M79.0052 35.3071H87.3734V36.8471H84.0527V44.2988H82.3259V36.8471H79.0052V35.3071Z" fill="white"/>
<path d="M97.7008 36.8471H91.8232V39.033H96.688V40.573H91.8232V42.7423H97.7008V44.2988H90.0798V35.3071H97.7008V36.8471Z" fill="white"/>
<path d="M104.558 39.066C104.973 39.1819 105.305 39.2813 105.554 39.3641C105.803 39.4469 106.102 39.5793 106.451 39.7449C106.799 39.9105 107.065 40.0927 107.264 40.2748C107.464 40.457 107.613 40.6723 107.762 40.9372C107.912 41.2187 107.978 41.5168 107.978 41.848C107.978 42.3282 107.862 42.7587 107.646 43.1065C107.414 43.4542 107.115 43.7357 106.733 43.9179C106.351 44.1166 105.919 44.2656 105.455 44.3484C104.99 44.4478 104.508 44.4975 103.96 44.4975C102.599 44.4975 101.304 44.1663 100.092 43.5039L100.972 42.1791C102.018 42.7256 103.047 43.0071 104.027 43.0071C105.455 43.0071 106.169 42.6428 106.169 41.9308C106.169 41.7486 106.102 41.5665 105.986 41.4174C105.87 41.2684 105.704 41.1359 105.455 41.02C105.206 40.9041 104.99 40.8213 104.774 40.7385C104.575 40.6723 104.276 40.5729 103.894 40.457C103.877 40.457 103.861 40.4404 103.844 40.4404C103.827 40.4404 103.811 40.457 103.794 40.4404C103.778 40.4404 103.778 40.4239 103.761 40.4239C103.313 40.3079 102.981 40.2086 102.748 40.1258C102.516 40.043 102.2 39.9105 101.835 39.7449C101.47 39.5793 101.204 39.4137 101.005 39.2316C100.822 39.0494 100.656 38.8342 100.507 38.5527C100.357 38.2711 100.274 37.94 100.274 37.5922C100.274 36.8636 100.59 36.2675 101.221 35.8204C101.901 35.3401 102.881 35.1249 104.143 35.1249C105.388 35.1249 106.584 35.4395 107.796 36.1019L106.932 37.3935C105.919 36.8636 104.973 36.5987 104.06 36.5987C103.412 36.5987 102.914 36.6815 102.582 36.847C102.25 37.0126 102.084 37.2445 102.084 37.526C102.084 37.675 102.134 37.824 102.217 37.9565C102.3 38.089 102.4 38.2049 102.516 38.2877C102.632 38.3705 102.815 38.4533 103.047 38.5527C103.28 38.652 103.479 38.7348 103.628 38.7845C103.778 38.8342 104.027 38.9004 104.359 38.9998C104.458 39.0329 104.508 39.0329 104.558 39.0494V39.066Z" fill="white"/>
</g>
</g>
</svg>
